<svg width="120" height="120" viewBox="0 0 120 120" fill="none" xmlns="http://www.w3.org/2000/svg">
<path fill-rule="evenodd" clip-rule="evenodd" d="M61.2391 101.948C60.9066 101.645 60.4533 101.434 60 101.434C59.5467 101.434 59.0933 101.615 58.7609 101.948C58.4285 102.28 58.2471 102.733 58.2471 103.187C58.2471 103.64 58.4285 104.093 58.7609 104.426C59.0933 104.758 59.5467 104.94 60 104.94C60.4533 104.94 60.9066 104.758 61.2391 104.426C61.5715 104.093 61.7528 103.64 61.7528 103.187C61.7528 102.733 61.5715 102.28 61.2391 101.948Z" fill="#7c785c"/>
<path fill-rule="evenodd" clip-rule="evenodd" d="M95.6313 72.4513L89.7683 71.0611V68.7341C93.0322 66.679 95.178 63.0524 95.178 58.912V52.3842C95.178 45.9772 89.9798 40.7791 83.5729 40.7791C80.1276 40.7791 77.0148 42.2901 74.8992 44.7079C73.0255 38.2707 67.0719 33.5259 60.0302 33.5259C52.9886 33.5259 47.0349 38.2707 45.1612 44.7381C43.0457 42.3204 39.9328 40.7791 36.4573 40.7791C30.0504 40.7791 24.8522 45.9772 24.8522 52.3842V58.912C24.8522 63.0524 26.998 66.679 30.2619 68.7341V71.0611L24.3989 72.4513C18.8684 73.7811 15 78.677 15 84.3586V96.1753C15 97.1424 15.7858 97.9281 16.7529 97.9281H30.8664V103.217C30.8664 104.184 31.6521 104.97 32.6192 104.97H51.9006C52.8677 104.97 53.6535 104.184 53.6535 103.217C53.6535 102.25 52.8677 101.464 51.9006 101.464H44.0732V93.7273C44.0732 92.7602 43.2874 91.9745 42.3203 91.9745C41.3533 91.9745 40.5675 92.7602 40.5675 93.7273V101.464H34.4023V93.546C34.4023 87.5923 38.452 82.4547 44.2243 81.0947L52.8677 79.0094L58.4285 91.6723C58.7005 92.3069 59.3351 92.6998 60.0302 92.6998C60.7253 92.6998 61.36 92.3069 61.6622 91.6723L67.223 79.0396L75.8361 81.0947C81.6387 82.4849 85.6884 87.6226 85.6884 93.5762V95.5406C85.5977 95.7522 85.5373 95.994 85.5373 96.2357C85.5373 96.4775 85.5977 96.7193 85.6884 96.9308V101.494H79.5534V93.7576C79.5534 92.7905 78.7676 92.0047 77.8005 92.0047C76.8334 92.0047 76.0477 92.7905 76.0477 93.7576V101.494H67.4345C66.4674 101.494 65.6817 102.28 65.6817 103.247C65.6817 104.214 66.4674 105 67.4345 105H87.4412C88.4083 105 89.1941 104.214 89.1941 103.247V97.9584H103.277C104.244 97.9584 105.03 97.1726 105.03 96.2055V84.3888C105.03 78.7072 101.162 73.8113 95.6313 72.4815V72.4513ZM83.6031 44.2848C88.0457 44.2848 91.6723 47.9114 91.6723 52.3842V52.9886H86.6555C82.8475 52.9886 79.1303 51.9913 75.8361 50.1175C76.8032 46.7629 79.916 44.315 83.6031 44.315V44.2848ZM75.5037 58.64V53.9255C78.9792 55.6179 82.7569 56.4943 86.6252 56.4943H91.642V58.912C91.642 63.3848 88.0154 67.0114 83.5729 67.0114C79.1303 67.0114 75.4735 63.3848 75.4735 58.912V58.64H75.5037ZM48.1229 48.9691C48.1229 42.3808 53.4721 37.0316 60.0604 37.0316C66.6488 37.0316 71.998 42.3808 71.998 48.9691V49.1807L65.4701 45.3425C64.7146 44.9194 63.7777 45.0705 63.2337 45.7052C60.6951 48.7273 56.9778 50.4802 53.0188 50.4802H48.0625V48.9389L48.1229 48.9691ZM28.4184 52.8073V52.3842C28.4184 47.9114 32.045 44.2848 36.5178 44.2848C40.2048 44.2848 43.2874 46.7327 44.2848 50.0873C40.9906 51.9611 37.2733 52.9584 33.4654 52.9584H28.4486V52.777L28.4184 52.8073ZM28.4184 58.912V56.4943H33.4352C37.3036 56.4943 41.1115 55.6179 44.587 53.8952V58.912C44.587 63.3848 40.9604 67.0114 36.4876 67.0114C32.0148 67.0114 28.3882 63.3848 28.3882 58.912H28.4184ZM30.8966 93.4856V94.3922H25.638V86.5648C25.638 85.5977 24.8522 84.812 23.8852 84.812C22.9181 84.812 22.1323 85.5977 22.1323 86.5648V94.3922H18.5662V84.3284C18.5662 80.2787 21.3163 76.8032 25.2451 75.8664L30.8059 74.5366L34.4325 83.2404C32.1659 86.051 30.8361 89.6474 30.8361 93.4856H30.8966ZM36.5178 78.949L33.8583 72.5722V70.2149C34.7347 70.4265 35.6111 70.5171 36.5178 70.5171C37.4244 70.5171 38.3009 70.3962 39.1471 70.2149V72.6024L36.5178 78.9792V78.949ZM43.4385 77.589C42.411 77.8308 41.4137 78.1934 40.4768 78.6165L42.1995 74.5064L47.7602 75.8664C48.2136 75.957 48.6064 76.1081 49.0295 76.2592L43.4688 77.589H43.4385ZM52.1726 73.9322C51.0544 73.2371 49.8455 72.7233 48.5762 72.4211L42.683 71.0309V68.7341C44.1639 67.7972 45.403 66.5883 46.3096 65.1075C47.6394 67.6763 49.6642 69.8522 52.1424 71.3633V73.9624L52.1726 73.9322ZM64.4728 76.5312L60.0907 86.5044L55.7085 76.501V72.8744C57.1289 73.2975 58.5796 73.5091 60.1209 73.5091C61.6622 73.5091 63.1128 73.2975 64.503 72.8744V76.501L64.4728 76.5312ZM60.0907 70.0034C53.5023 70.0034 48.1531 64.6541 48.1531 58.0658V54.0161H53.1095C57.5823 54.0161 61.8435 52.233 64.9866 49.09L72.0584 53.2606V58.4889C71.8469 64.8959 66.5581 70.0336 60.1209 70.0336L60.0907 70.0034ZM67.9785 71.3633C70.4869 69.8825 72.5117 67.7065 73.8717 65.1075C74.7784 66.5581 76.0175 67.767 77.4983 68.7038V71.0007L71.6051 72.3909C70.3358 72.6931 69.0967 73.2068 68.0087 73.9019V71.3331L67.9785 71.3633ZM76.6521 77.589L71.0913 76.2592C71.5144 76.1081 71.9375 75.957 72.3909 75.8361L77.9516 74.5064L79.6743 78.6165C78.7072 78.1934 77.7099 77.8308 76.6521 77.589V77.589ZM80.9436 72.5722C80.9436 72.5722 80.9436 72.4513 80.9436 72.3909V70.1847C81.7898 70.3962 82.6662 70.4869 83.6031 70.4869C84.5399 70.4869 85.4164 70.366 86.2626 70.1847V72.5118L83.5729 78.9187L80.9134 72.5722H80.9436ZM101.525 94.362H98.0188V86.5346C98.0188 85.5675 97.233 84.7817 96.2659 84.7817C95.2988 84.7817 94.5131 85.5675 94.5131 86.5346V94.362H89.2243V93.4553C89.2243 89.6172 87.8945 86.0208 85.6279 83.2102L89.2545 74.4762L94.8455 75.8059C98.8046 76.7428 101.555 80.2485 101.555 84.268V94.3318L101.525 94.362Z" fill="#7c785c"/>
<path fill-rule="evenodd" clip-rule="evenodd" d="M55.3761 56.1316C55.0436 55.7992 54.5903 55.6179 54.137 55.6179C53.6837 55.6179 53.2001 55.7992 52.8979 56.1316C52.5655 56.4641 52.3841 56.9174 52.3841 57.3707C52.3841 57.824 52.5655 58.2774 52.8979 58.6098C53.2001 58.9422 53.6837 59.1236 54.137 59.1236C54.5903 59.1236 55.0436 58.9422 55.3761 58.6098C55.7085 58.3076 55.8898 57.824 55.8898 57.3707C55.8898 56.9174 55.7085 56.4641 55.3761 56.1316Z" fill="#7c785c"/>
<path fill-rule="evenodd" clip-rule="evenodd" d="M67.1322 56.1316C66.7998 55.7992 66.3465 55.6179 65.8931 55.6179C65.4398 55.6179 64.9865 55.7992 64.6541 56.1316C64.3216 56.4641 64.1403 56.9174 64.1403 57.3707C64.1403 57.824 64.3216 58.2774 64.6541 58.6098C64.9865 58.9422 65.4398 59.1236 65.8931 59.1236C66.3465 59.1236 66.7998 58.9422 67.1322 58.6098C67.4647 58.3076 67.646 57.824 67.646 57.3707C67.646 56.9174 67.4647 56.4641 67.1322 56.1316Z" fill="#7c785c"/>
<path fill-rule="evenodd" clip-rule="evenodd" d="M63.415 62.055C62.7199 61.3599 61.6319 61.3599 60.9368 62.055C60.4231 62.5688 59.5769 62.5688 59.0631 62.055C58.368 61.3599 57.28 61.3599 56.5849 62.055C55.8898 62.7501 55.8898 63.8381 56.5849 64.5332C57.5218 65.4701 58.7609 65.9536 60 65.9536C61.2391 65.9536 62.4781 65.4701 63.415 64.5332C64.1101 63.8381 64.1101 62.7501 63.415 62.055Z" fill="#7c785c"/>
<path fill-rule="evenodd" clip-rule="evenodd" d="M87.6829 24.4896H86.474C85.507 24.4896 84.7212 25.2754 84.7212 26.2425C84.7212 27.2096 85.507 27.9953 86.474 27.9953H87.6829C88.6802 27.9953 89.4358 27.2096 89.4358 26.2425C89.4358 25.2754 88.65 24.4896 87.6829 24.4896V24.4896Z" fill="#7c785c"/>
<path fill-rule="evenodd" clip-rule="evenodd" d="M96.2357 24.4896H95.0268C94.0597 24.4896 93.274 25.2754 93.274 26.2425C93.274 27.2096 94.0597 27.9953 95.0268 27.9953H96.2357C97.2028 27.9953 97.9886 27.2096 97.9886 26.2425C97.9886 25.2754 97.2028 24.4896 96.2357 24.4896V24.4896Z" fill="#7c785c"/>
<path fill-rule="evenodd" clip-rule="evenodd" d="M91.37 28.1464C90.4029 28.1464 89.6172 28.9322 89.6172 29.8993V31.1081C89.6172 32.0752 90.4029 32.861 91.37 32.861C92.3371 32.861 93.1229 32.0752 93.1229 31.1081V29.8993C93.1229 28.9322 92.3371 28.1464 91.37 28.1464Z" fill="#7c785c"/>
<path fill-rule="evenodd" clip-rule="evenodd" d="M91.37 19.6239C90.4029 19.6239 89.6172 20.4097 89.6172 21.3768V22.5856C89.6172 23.5527 90.4029 24.3385 91.37 24.3385C92.3371 24.3385 93.1229 23.5527 93.1229 22.5856V21.3768C93.1229 20.4097 92.3371 19.6239 91.37 19.6239V19.6239Z" fill="#7c785c"/>
<path fill-rule="evenodd" clip-rule="evenodd" d="M24.9429 24.4896H23.7341C22.767 24.4896 21.9812 25.2754 21.9812 26.2425C21.9812 27.2096 22.767 27.9953 23.7341 27.9953H24.9429C25.91 27.9953 26.6958 27.2096 26.6958 26.2425C26.6958 25.2754 25.91 24.4896 24.9429 24.4896V24.4896Z" fill="#7c785c"/>
<path fill-rule="evenodd" clip-rule="evenodd" d="M33.4653 24.4896H32.2565C31.2894 24.4896 30.5036 25.2754 30.5036 26.2425C30.5036 27.2096 31.2894 27.9953 32.2565 27.9953H33.4653C34.4324 27.9953 35.2182 27.2096 35.2182 26.2425C35.2182 25.2754 34.4324 24.4896 33.4653 24.4896V24.4896Z" fill="#7c785c"/>
<path fill-rule="evenodd" clip-rule="evenodd" d="M28.5997 28.1464C27.6326 28.1464 26.8468 28.9322 26.8468 29.8993V31.1081C26.8468 32.0752 27.6326 32.861 28.5997 32.861C29.5668 32.861 30.3525 32.0752 30.3525 31.1081V29.8993C30.3525 28.9322 29.5668 28.1464 28.5997 28.1464Z" fill="#7c785c"/>
<path fill-rule="evenodd" clip-rule="evenodd" d="M28.5997 19.6239C27.6326 19.6239 26.8468 20.4097 26.8468 21.3768V22.5856C26.8468 23.5527 27.6326 24.3385 28.5997 24.3385C29.5668 24.3385 30.3525 23.5527 30.3525 22.5856V21.3768C30.3525 20.4097 29.5668 19.6239 28.5997 19.6239V19.6239Z" fill="#7c785c"/>
<path fill-rule="evenodd" clip-rule="evenodd" d="M60.0301 21.7092C59.063 21.7092 58.2773 22.495 58.2773 23.4621V28.086C58.2773 29.0531 59.063 29.8388 60.0301 29.8388C60.9972 29.8388 61.783 29.0531 61.783 28.086V23.4621C61.783 22.495 60.9972 21.7092 60.0301 21.7092V21.7092Z" fill="#7c785c"/>
<path fill-rule="evenodd" clip-rule="evenodd" d="M61.2692 15.5138C60.9368 15.1813 60.4835 15 60.0301 15C59.5768 15 59.1235 15.1813 58.7911 15.5138C58.4586 15.816 58.2773 16.2995 58.2773 16.7529C58.2773 17.2062 58.4586 17.6595 58.7911 17.9919C59.1235 18.3244 59.5768 18.5057 60.0301 18.5057C60.4835 18.5057 60.9368 18.3244 61.2692 17.9919C61.6017 17.6595 61.783 17.2062 61.783 16.7529C61.783 16.2995 61.6017 15.816 61.2692 15.5138V15.5138Z" fill="#7c785c"/>
<path fill-rule="evenodd" clip-rule="evenodd" d="M53.865 22.0416L51.2961 19.4728C50.601 18.7777 49.4828 18.7777 48.818 19.4728C48.1229 20.1679 48.1229 21.2861 48.818 21.951L51.3868 24.5198C51.7192 24.8522 52.1726 25.0336 52.6259 25.0336C53.0792 25.0336 53.5325 24.8825 53.865 24.5198C54.5601 23.8247 54.5601 22.7065 53.865 22.0416Z" fill="#7c785c"/>
<path fill-rule="evenodd" clip-rule="evenodd" d="M71.2424 19.3821C70.5473 18.687 69.4291 18.687 68.7642 19.3821L66.1047 22.0416C65.4096 22.7367 65.4096 23.8247 66.1047 24.5198C66.4372 24.8522 66.8905 25.0336 67.3438 25.0336C67.7971 25.0336 68.2505 24.8522 68.5829 24.5198L71.2424 21.8603C71.9375 21.1652 71.9375 20.047 71.2424 19.3821V19.3821Z" fill="#7c785c"/>
</svg>
